{"title":"INNA - Crazy Sexy Wild (Ingles) (h264/mp4)","uid":7573332,"size":59552451,"categoryP":"video","categoryS":"music_videos","magnet":"?xt=urn:btih:299da83a4e150d40b1a6a4d6b260bda5bfb1278a&amp;dn=INNA+-+Crazy+Sexy+Wild+%28Ingles%29+%28h264%2Fmp4%29&amp;tr=udp%3A%2F%2Ftracker.openbittorrent.com%3A80&amp;tr=udp%3A%2F%2Fopen.demonii.com%3A1337&amp;tr=udp%3A%2F%2Ftracker.coppersurfer.tk%3A6969&amp;tr=udp%3A%2F%2Fexodus.desync.com%3A6969","seeders":0,"leechers":2,"uploader":"MusicVideos-HQ","files":1,"time":1346050336,"description":"General\n\nFormat                         : MPEG-4\nFormat profile                 : Base Media\nCodec ID                       : isom\nFile size                      : 56.8 MiB\nDuration                       : 3mn 21s\nOverall bit rate mode          : Variable\nOverall bit rate               : 2 365 Kbps\nEncoded date                   : UTC 2012-08-25 06:19:42\nTagged date                    : UTC 2012-08-25 06:19:42\n\nVideo\nID                             : 1\nFormat                         : AVC\nFormat/Info                    : Advanced Video Codec\nFormat profile                 : &lt;a class=&quot;__cf_email__&quot; href=&quot;/cdn-cgi/l/email-protection&quot; data-cfemail=&quot;3d75545a557d710e130d&quot;&gt;[email&amp;#160;protected]&lt;/a&gt;&lt;script data-cfhash='f9e31' type=&quot;text/javascript&quot;&gt;\n/* &lt;![CDATA[ */!function(){try{var t=&quot;currentScript&quot;in document?document.currentScript:function(){for(var t=document.getElementsByTagName(&quot;script&quot;),e=t.length;e--;)if(t[e].getAttribute(&quot;data-cfhash&quot;))return t[e]}();if(t&amp;&amp;t.previousSibling){var e,r,n,i,c=t.previousSibling,a=c.getAttribute(&quot;data-cfemail&quot;);if(a){for(e=&quot;&quot;,r=parseInt(a.substr(0,2),16),n=2;a.length-n;n+=2)i=parseInt(a.substr(n,2),16)^r,e+=String.fromCharCode(i);e=document.createTextNode(e),c.parentNode.replaceChild(e,c)}t.parentNode.removeChild(t);}}catch(u){}}()/* ]]&gt; */&lt;/script&gt;\nFormat settings, CABAC         : Yes\nFormat settings, ReFrames      : 2 frames\nCodec ID                       : avc1\nCodec ID/Info                  : Advanced Video Coding\nDuration                       : 3mn 21s\nBit rate                       : 2 191 Kbps\nMaximum bit rate               : 4 196 Kbps\nWidth                          : 720 pixels\nHeight                         : 480 pixels\nDisplay aspect ratio           : 16:9\nOriginal display aspect ratio  : 16:9\nFrame rate mode                : Constant\nFrame rate                     : 23.976 fps\nStandard                       : NTSC\nColor space                    : YUV\nChroma subsampling             : 4:2:0\nBit depth                      : 8 bits\nScan type                      : Progressive\nBits/(Pixel*Frame)             : 0.264\nStream size                    : 50.8 MiB (89%)\nWriting library                : x264 core 119 r2106 07efeb4\n\n\nAudio\nID                             : 2\nFormat                         : MPEG Audio\nFormat version                 : Version 1\nFormat profile                 : Layer 3\nMode                           : Joint stereo\nMode extension                 : MS Stereo\nCodec ID                       : 6B\nDuration                       : 3mn 21s\nBit rate mode                  : Variable\nBit rate                       : 242 Kbps\nMaximum bit rate               : 263 Kbps\nChannel(s)                     : 2 channels\nSampling rate                  : 44.1 KHz\nCompression mode               : Lossy\nDelay relative to video        : -833ms\nStream size                    : 5.82 MiB (10%)","torrent":{"xt":"urn:btih:299da83a4e150d40b1a6a4d6b260bda5bfb1278a","amp;dn":"INNA+-+Crazy+Sexy+Wild+%28Ingles%29+%28h264%2Fmp4%29","amp;tr":["udp%3A%2F%2Ftracker.openbittorrent.com%3A80","udp%3A%2F%2Fopen.demonii.com%3A1337","udp%3A%2F%2Ftracker.coppersurfer.tk%3A6969","udp%3A%2F%2Fexodus.desync.com%3A6969"],"infoHash":"299da83a4e150d40b1a6a4d6b260bda5bfb1278a","infoHashBuffer":{"type":"Buffer","data":[41,157,168,58,78,21,13,64,177,166,164,214,178,96,189,165,191,177,39,138]},"announce":[],"urlList":[]}}